<svg width="256" height="256" viewBox="0 0 256 256" fill="none" xmlns="http://www.w3.org/2000/svg">
<rect width="256" height="256" fill="#242424"/>
<path d="M53.9509 125.724C53.9509 115.636 55.8756 106.145 59.725 97.2516C63.5744 88.3581 68.884 80.4602 75.6536 73.5578C82.4233 66.6554 90.2549 61.2795 99.1483 57.4301C108.175 53.4479 117.798 51.4568 128.019 51.4568C138.107 51.4568 147.598 53.4479 156.491 57.4301C165.518 61.2795 173.415 66.6554 180.185 73.5578C187.088 80.4602 192.463 88.3581 196.313 97.2516C200.295 106.145 202.286 115.636 202.286 125.724C202.286 135.945 200.295 145.502 196.313 154.395C192.463 163.289 187.088 171.187 180.185 178.089C173.415 184.859 165.518 190.168 156.491 194.018C147.598 197.735 138.107 199.593 128.019 199.593C117.665 199.593 108.042 197.735 99.1483 194.018C90.2549 190.168 82.4233 184.925 75.6536 178.288C68.884 171.519 63.5744 163.687 59.725 154.794C55.8756 145.767 53.9509 136.078 53.9509 125.724ZM77.8438 125.724C77.8438 132.892 79.1048 139.595 81.6269 145.834C84.2816 152.073 87.9319 157.581 92.5778 162.36C97.2236 167.006 102.6 170.656 108.705 173.311C114.811 175.965 121.448 177.293 128.616 177.293C135.519 177.293 141.956 175.965 147.93 173.311C154.036 170.656 159.345 167.006 163.858 162.36C168.371 157.581 171.889 152.073 174.411 145.834C177.066 139.595 178.393 132.892 178.393 125.724C178.393 118.423 177.066 111.654 174.411 105.415C171.756 99.1763 168.172 93.6676 163.659 88.8891C159.146 84.1105 153.837 80.3938 147.731 77.739C141.625 75.0843 135.054 73.7569 128.019 73.7569C120.984 73.7569 114.413 75.0843 108.307 77.739C102.201 80.3938 96.8254 84.1105 92.1796 88.8891C87.6665 93.6676 84.1489 99.2427 81.6269 105.614C79.1048 111.853 77.8438 118.556 77.8438 125.724Z" fill="white"/>
</svg>
